<?xml version="1.0" encoding="utf-8"?>
<!-- Generator: Adobe Illustrator 24.2.0, SVG Export Plug-In . SVG Version: 6.00 Build 0)  -->
<svg version="1.1" xmlns="http://www.w3.org/2000/svg" xmlns:xlink="http://www.w3.org/1999/xlink" x="0px" y="0px"
	 viewBox="0 0 750 500" style="enable-background:new 0 0 750 500;" xml:space="preserve">
<style type="text/css">
	.st0{fill:#FFFFFF;}
	.st1{opacity:0.2;}
	.st2{clip-path:url(#SVGID_2_);}
	.st3{fill:none;stroke:#444444;stroke-width:3;stroke-miterlimit:10;}
	.st4{fill:none;stroke:#444444;stroke-miterlimit:10;}
</style>
<g id="BACKGROUND">
	<rect class="st0" width="750" height="500"/>
</g>
<g id="OBJECTS" class="st1">
	<g>
		<defs>
			<rect id="SVGID_1_" width="750" height="500"/>
		</defs>
		<clipPath id="SVGID_2_">
			<use xlink:href="#SVGID_1_"  style="overflow:visible;"/>
		</clipPath>
		<g class="st2">
			<path class="st3" d="M356.83-9.97c-11.15-3.7-19.62,4.67-28.44,9.64c-8.28,4.67-16.96,6.58-20.66,16.68
				c-1.51,4.11-1.86,8.67-4.09,12.42c-1.65,2.77-4.2,4.88-6.69,6.92c-6.14,5.03-12.27,10.06-18.41,15.09
				c-3.99,3.27-8.08,6.66-10.59,11.17c-2.5,4.52-3.09,10.49-0.06,14.67c5.29,7.29,16.63,4.78,25.13,7.75
				c11.09,3.87,16.52,16.92,27.11,22c-0.72,5.66-0.74,12.78,4.3,15.45c4.48,2.37,9.77-0.49,14.44-2.43
				c5.43-2.26,11.7-3.26,17.17-1.1c5.47,2.16,9.64,8.16,8.31,13.89c-1.07,4.58-5.3,8.87-3.62,13.27c0.74,1.93,2.48,3.27,3.6,5
				c6.62,10.26-9,25.19,6.07,30.68c11.29,4.12,24.98,0.4,34.32,10.56c9.08,9.88,4.59,26.95-3.09,36.34
				c-7.78,9.51-22.02,3.98-29,15.06c-1.21,1.91-1.95,4.09-3.15,6.01c-4.23,6.72-13.02,8.81-18.94,14.1
				c-8.3,7.41-9.83,19.92-16.79,28.6c-4.5,5.62-10.94,9.25-16.64,13.64c-5.7,4.39-11.04,10.25-11.64,17.42
				c-0.48,5.85,2.5,11.3,2.31,17.06c-0.21,6.52-2.53,11.36-1.64,18.27c0.28,2.15,0.74,4.41,2.18,6.03c1.84,2.08,4.81,2.62,7.33,3.78
				c10.51,4.85,12.95,20.23,23.62,24.72c5.72,2.41,13.08,1.25,17.5,5.61c3.71,3.66,3.56,9.95,1.03,14.51
				c-2.53,4.55-6.9,7.74-11.21,10.66c-24.25,16.46-50.9,29.37-78.85,38.2c-1.81,0.57-3.8,1.13-5.58,0.44
				c-3.23-1.24-3.73-5.49-5.37-8.53c-2.8-5.17-9.46-7.01-15.33-6.64c-5.87,0.37-11.55,2.41-17.42,2.78
				c-20.35,1.29-35.96-16.48-51.81-29.3c-13.13-10.62-28.4-18.58-44.63-23.26c-3.34-0.96-6.99-1.96-9.07-4.75
				c-2.88-3.87-1.5-9.27-1.8-14.08c-0.51-8.05-6.69-15.42-14.53-17.31c-4.06-0.98-8.31-0.6-12.49-0.81
				c-17.78-0.91-37.05-12.22-51.99-2.54c-3.83,2.48-7.09,6.27-11.59,6.99c-3.42,0.55-6.82-0.81-10.02-2.15
				c-14.51-6.07-29.03-12.13-43.54-18.2"/>
			<path class="st3" d="M767.07,281.83c-10.08,0.69-18.89-6.2-28.34-9.76c-11.28-4.25-23.7-3.76-35.7-4.87
				c-29.78-2.75-58.35-15.6-88.26-15.01c-23.8,0.47-46.68,9.5-67.47,21.1c-10.13,5.65-20.08,12.1-27.36,21.13
				c-11.17,13.85-14.86,33.38-9.53,50.36c5.34,16.97,19.55,30.87,36.64,35.84c17.08,4.96,35.33,1.3,53.1,2.04
				c17.77,0.74,37.88,8.43,42.91,25.49c0.93,3.17,1.3,6.56,2.88,9.47c2.54,4.69,7.71,7.24,12.59,9.4
				c9.72,4.28,20.28,8.23,30.72,6.33c9.79-1.78,17.9-8.41,26.98-12.47c17.71-7.91,39.68-5.25,54.99,6.66"/>
			<path class="st3" d="M600.3-12.25c-8.84,9.38-18.24,18.48-24.55,29.72c-6.31,11.24-9.14,25.27-3.98,37.07
				c5.17,11.8,17.95,21.62,15.73,34.31c-0.72,4.1-3.02,7.79-3.66,11.9c-1.13,7.21,3.17,14.42,9.04,18.77
				c5.87,4.35,13.09,6.38,20.15,8.22c11.04,2.88,22.56,5.51,33.76,3.32c11.19-2.19,21.98-10.53,23.39-21.85
				c0.66-5.29-0.74-10.63-0.56-15.96c0.19-5.33,2.74-11.3,7.9-12.64c4.28-1.11,9.16,1.31,13.1-0.71c5.74-2.94,4.03-11.61,6.78-17.44
				c3.56-7.57,14.19-8.81,22.03-5.92c7.84,2.89,14.37,8.63,22.15,11.69c9.78,3.84,21.28,3.01,30.41-2.19"/>
			<path class="st4" d="M759.6,297.57c-17.06-7.5-35.85-9.9-54.34-12.22c-14.27-1.79-28.54-3.58-42.81-5.37
				c-17.12-2.15-34.42-4.3-51.59-2.57c-17.38,1.75-34.34,7.52-49.18,16.73c-8.96,5.56-17.37,12.63-22.16,22.03
				c-4.79,9.4-5.32,21.47,0.74,30.1c3.59,5.12,9.1,8.6,14.85,11.05c14.33,6.08,30.34,6.34,45.78,8.34
				c15.44,2.01,31.73,6.5,41.69,18.47c5.61,6.73,8.79,15.37,15.14,21.4c13.52,12.81,35.3,9.14,53,3.33
				c17.7-5.81,37.5-12.85,54.15-4.51"/>
			<path class="st4" d="M684.71,325.94c-4.19,0.15-8.53,0.82-11.98,3.19c-3.46,2.37-5.77,6.82-4.55,10.83
				c1.24,4.09,5.59,6.45,9.78,7.29c4.19,0.84,8.56,0.61,12.69,1.7c7.86,2.07,14.4,8.79,22.53,8.77
				c14.17-0.02,17.34-17.69,6.86-25.33C712.16,326.63,693.79,325.61,684.71,325.94z"/>
			<path class="st4" d="M704.95,310.67c-14.52-4.31-27.87-5.39-42.72-2.08c-14.88,3.32-29.89,18.44-20.8,34.27
				c6.35,11.05,18.99,14,30.13,17.95c8.85,3.14,15.18,9.14,23.44,13.06c12.1,5.74,27.02,3.79,38.55-2.38
				c9.55-5.11,21.57-17.9,18.05-29.78c-3.27-11.03-17.13-19.08-26.79-23.66C718.43,315,711.72,312.68,704.95,310.67z"/>
			<path class="st4" d="M762.44,320.14c-21.82-9.96-44.04-19.39-67.39-24.82c-23.36-5.44-48.06-6.74-71.21-0.48
				c-8.96,2.43-17.84,6.11-24.55,12.52c-6.71,6.41-10.95,15.96-9.19,25.08c1.75,9.07,9,16.21,17.1,20.65
				c8.1,4.43,17.17,6.7,25.85,9.85c8.68,3.15,17.35,7.48,22.93,14.84c2.07,2.73,3.65,5.81,5.91,8.38c6.03,6.86,16,9.01,25.09,8.17
				c9.09-0.84,17.72-4.23,26.49-6.77c17.48-5.07,35.9-6.87,54.03-5.26"/>
			<path class="st4" d="M606.77-6.12C597.91-0.09,590.16,8,586.16,17.94c-4,9.94-3.82,21.86,1.97,30.88
				c3.33,5.18,8.31,9.21,11.21,14.64c3.69,6.9,3.59,15.14,3,22.94c-0.34,4.54-0.77,9.36,1.31,13.42c1.99,3.89,5.94,6.37,9.88,8.27
				c5.65,2.74,11.9,4.74,18.15,4.06c7.38-0.8,14.21-5.57,17.5-12.23c2.48-5.02,2.97-10.76,4.34-16.18
				c1.38-5.43,4.07-11.05,9.15-13.43c3.07-1.44,6.65-1.5,9.73-2.92c10.12-4.65,9.56-20.22,18.29-27.13
				c5.89-4.66,14.46-4.03,21.49-1.39c7.03,2.64,13.34,7,20.47,9.36c11.66,3.87,25.12,1.84,35.13-5.29"/>
			<path class="st4" d="M630.27-6.09c-5.68,2.97-10.92,6.77-15.49,11.26c-6.69,6.56-12.19,15.91-9.73,24.95
				c1.96,7.21,8.54,12.43,10.63,19.6c1.12,3.83,0.86,7.92,1.55,11.85c0.69,3.93,2.73,8.07,6.5,9.36c1.52,0.52,3.19,0.51,4.75,0.14
				c7.64-1.8,10.8-10.79,16.55-16.12c4.88-4.52,11.65-6.36,17.13-10.12c8.21-5.64,12.97-15.4,14.23-25.29
				c1.26-9.88-0.65-19.92-3.6-29.44"/>
			<path class="st4" d="M690.24-6.47c-0.05,14.53,9.06,28.69,22.3,34.68c7.63,3.45,16.16,4.28,24.52,4.85
				c9.05,0.61,18.68,0.84,26.52-3.72"/>
			<path class="st4" d="M711.66-7.88c-0.33,5.85,4,11,8.9,14.21c6.8,4.45,15.01,6.43,23.14,6.6c8.12,0.17,16.2-1.37,24.04-3.49"/>
			<path class="st4" d="M644.44-5.8c0.08,5.31-4.48,9.36-7.05,14.02c-1.68,3.04-2.53,6.46-3.16,9.88
				c-0.87,4.69-0.95,10.42,2.91,13.23c2.6,1.89,6.3,1.7,9.15,0.21c2.85-1.49,4.97-4.07,6.7-6.78c6.8-10.68,8.41-24.51,4.26-36.47"/>
			<g>
				<path class="st4" d="M-13.62,107.09c3.76,5.52,9.17,9.69,14.72,13.4c18.26,12.22,39.41,20.57,61.33,22.04
					s44.61-4.24,62.05-17.61c8.22-6.3,15.24-14.19,24.13-19.5c14.12-8.42,31.25-9.38,47.41-12.39c16.16-3,33.45-9.49,41.07-24.05
					c3.35-6.41,4.56-13.95,9-19.65c6.31-8.1,17.57-10.58,25.02-17.65c6.96-6.61,9.79-16.39,15.16-24.34
					c6.28-9.28,16.25-15.99,27.21-18.31"/>
				<path class="st4" d="M-13.71,94.72c3.3,4.78,7.98,8.43,12.79,11.68c15.83,10.7,34.17,18.06,53.2,19.53
					c19.04,1.47,38.67-3.33,54.09-14.44c2.51-1.81,4.94-3.74,7.3-5.8c4.67-4.07,8.96-8.44,13.98-11.83
					c2.01-1.35,4.09-2.52,6.25-3.55c9.1-4.32,19.65-5.9,29.98-7.57c1.89-0.31,3.77-0.62,5.64-0.95c8.29-1.49,16.9-3.85,24.12-8
					c5.43-3.13,10.07-7.27,13.18-12.73c3.19-5.59,4.55-12.19,8.55-17.31c5.68-7.27,15.36-9.95,21.7-16.49
					c2.54-2.62,4.42-5.73,6.07-8.99c2.21-4.35,4.02-9,6.54-13.14c5.14-8.49,13.39-14.83,22.93-17.37"/>
				<path class="st4" d="M-13.81,82.36c2.83,4.04,6.79,7.17,10.86,9.96c13.39,9.19,28.93,15.55,45.08,17.02
					c16.15,1.47,32.75-2.4,46.13-11.28c2.26-1.5,4.5-3.08,6.61-4.88c4.18-3.57,7.67-7.64,11.81-10.89c1.65-1.3,3.37-2.44,5.18-3.45
					c7.64-4.29,17-5.99,26.15-7.48c1.67-0.27,3.34-0.54,5-0.83c7.37-1.26,15-3.13,21.5-6.61c4.88-2.61,9.08-6.14,12.03-10.79
					c3.03-4.77,4.54-10.43,8.09-14.97c5.04-6.44,13.15-9.32,18.38-15.33c2.09-2.4,3.63-5.21,4.95-8.14c1.76-3.9,3.16-8.05,5.12-11.8
					c4.01-7.7,10.52-13.66,18.64-16.43"/>
				<path class="st4" d="M-13.9,69.99c2.37,3.31,5.6,5.91,8.93,8.24c10.96,7.68,23.69,13.04,36.95,14.5
					c13.26,1.46,26.87-1.45,38.17-8.11c2.02-1.19,4.05-2.41,5.91-3.96c3.69-3.06,6.39-6.83,9.65-9.95c1.29-1.24,2.65-2.35,4.1-3.35
					c6.18-4.24,14.35-6.08,22.33-7.39c1.46-0.24,2.92-0.47,4.37-0.7c6.44-1.04,13.1-2.42,18.87-5.22c4.32-2.1,8.1-5.01,10.88-8.85
					c2.86-3.95,4.53-8.68,7.64-12.62c4.41-5.61,10.94-8.69,15.06-14.18c1.65-2.19,2.84-4.69,3.82-7.29c1.31-3.45,2.29-7.1,3.7-10.45
					c2.89-6.9,7.66-12.5,14.36-15.49"/>
				<path class="st4" d="M-14,57.62c1.9,2.57,4.4,4.65,6.99,6.52c8.52,6.17,18.45,10.53,28.82,11.99
					c10.38,1.45,21.03-0.44,30.21-4.94c1.78-0.88,3.61-1.75,5.22-3.03c3.2-2.55,5.12-6.01,7.49-9.01c0.93-1.18,1.93-2.27,3.03-3.25
					c4.71-4.2,11.7-6.17,18.5-7.3c1.24-0.21,2.49-0.39,3.73-0.57c5.52-0.81,11.19-1.71,16.25-3.83c3.76-1.58,7.12-3.87,9.73-6.91
					c2.7-3.13,4.52-6.92,7.18-10.28c3.78-4.78,8.73-8.07,11.74-13.02c1.2-1.98,2.05-4.17,2.69-6.44c0.86-3,1.43-6.15,2.27-9.1
					c1.75-6.11,4.8-11.33,10.07-14.56"/>
				<path class="st4" d="M-14.09,45.25c1.44,1.83,3.21,3.39,5.06,4.8c6.08,4.66,13.21,8.03,20.7,9.47
					c7.49,1.45,15.25,0.66,22.25-1.78c1.56-0.54,3.17-1.08,4.53-2.11c2.71-2.05,3.84-5.2,5.32-8.07c0.57-1.12,1.2-2.18,1.96-3.15
					c3.25-4.18,9.05-6.26,14.67-7.2c1.03-0.17,2.06-0.32,3.09-0.45c4.59-0.59,9.29-1,13.62-2.44c3.2-1.07,6.13-2.74,8.57-4.97
					c2.54-2.31,4.51-5.16,6.72-7.94c3.14-3.95,6.52-7.44,8.42-11.86c0.76-1.76,1.26-3.65,1.57-5.58c0.42-2.55,0.56-5.2,0.85-7.75
					c0.61-5.32,1.94-10.17,5.79-13.62"/>
				<path class="st4" d="M-14.19,32.89c7.38,8.32,18.94,12.73,29.99,11.43c1.34-0.16,2.72-0.41,3.83-1.18
					c3.07-2.13,2.58-6.75,4.04-10.19c1.76-4.15,6.39-6.36,10.84-7.11c4.45-0.76,9.04-0.44,13.45-1.37
					C58.87,22.18,67.37,11.53,67.2,0.4c-0.1-6.5-2.65-13.66,0.93-19.08"/>
			</g>
			<g>
				<path class="st4" d="M-32.04,306.91c9.6,12.25,20.84,25.47,36.3,27.3c12.65,1.5,24.92-5.18,37.65-5.44
					c12.24-0.26,23.79,5.38,35.91,7.14c16.91,2.45,34.35-2.94,48.52-12.48c24.32-16.37,39.62-45.33,39.44-74.64
					c-0.06-10.43-1.95-20.98,0.03-31.22c1.48-7.68,5.06-14.77,7.54-22.18c4.63-13.88,5.32-29.06,1.97-43.31
					c-0.93-3.96-2.25-8-5.02-10.99c-5.06-5.48-13.76-6.01-20.83-3.63c-7.07,2.38-13.05,7.1-19.35,11.09
					c-25.38,16.09-56.58,20.54-86.61,19.51c-9.32-0.32-18.74-1.16-27.56-4.2c-11.88-4.1-22.03-11.98-31.93-19.72
					c-4.27-3.34-9.59-4.59-14.92-3.57c-5.33,1.02-10.04,4.09-14.2,7.58c-16.18,13.56-25.87,34.56-25.68,55.67
					c0.08,8.67,1.73,17.25,3.76,25.68C-60.52,256.41-49.12,285.11-32.04,306.91z"/>
				<path class="st4" d="M25.39,179.85c-9.58-2.89-18.08-8.48-26.36-14.13c-3.55-2.42-7.88-3.3-12.22-2.46
					c-4.35,0.84-8.24,3.23-11.7,5.94c-13.61,10.57-22.19,26.91-22.66,43.97c-0.17,6.96,0.93,13.95,2.44,20.94
					c5.46,21.1,14.27,43.71,27.76,60.91c7.63,9.73,16.66,20.04,28.9,21.64c10.02,1.31,19.8-3.64,29.91-3.92
					c9.99-0.31,19.38,3.54,29.14,4.39c13.6,1.2,27.55-3.63,39.16-11.31c19.26-12.83,31.95-34.85,32.63-57.66
					c0.24-8.12-0.95-16.31,0.7-24.27c1.26-6.02,4.05-11.59,5.97-17.39c3.61-10.95,4.04-22.83,1.29-33.95
					c-0.77-3.09-1.83-6.24-3.99-8.59c-3.95-4.3-10.66-4.88-16.17-3.26c-5.5,1.63-10.21,5.04-15.17,7.91
					C95.08,180.23,70.55,183.37,47,182.75C39.68,182.55,32.32,181.94,25.39,179.85z"/>
				<path class="st4" d="M34.82,195.85c-7.29-1.67-14.12-4.98-20.8-8.53c-2.83-1.5-6.17-2.01-9.52-1.35
					c-3.37,0.66-6.43,2.38-9.2,4.3c-11,7.61-18.55,19.25-19.65,32.28c-0.44,5.26,0.13,10.66,1.13,16.21
					c4.44,15.26,10.66,31.8,20.54,44.39c5.66,7.21,12.47,14.62,21.51,15.98c7.4,1.11,14.68-2.07,22.17-2.4
					c7.75-0.34,14.96,1.7,22.38,1.64c10.3-0.04,20.77-4.29,29.8-10.15c14.24-9.24,24.27-24.36,25.82-40.68
					c0.54-5.8,0.02-11.65,1.36-17.32c1.03-4.36,3.04-8.4,4.4-12.6c2.58-8.02,2.76-16.6,0.6-24.6c-0.6-2.22-1.41-4.47-2.97-6.19
					c-2.84-3.13-7.57-3.76-11.52-2.88c-3.94,0.87-7.37,2.96-10.99,4.73c-14.51,7.1-32.34,8.98-49.41,8.77
					C45.16,197.37,39.85,196.99,34.82,195.85z"/>
				<path class="st4" d="M44.25,211.84c-5.04-0.4-10.13-1.5-15.23-2.94c-2.09-0.59-4.45-0.72-6.82-0.24
					c-2.39,0.49-4.62,1.52-6.7,2.66c-8.43,4.63-14.87,11.6-16.64,20.58c-0.7,3.55-0.67,7.36-0.18,11.47
					c3.41,9.42,7.05,19.89,13.33,27.86c3.69,4.69,8.28,9.19,14.11,10.32c4.77,0.92,9.57-0.53,14.43-0.87
					c5.51-0.39,10.54-0.16,15.61-1.11c6.99-1.3,13.97-4.98,20.44-8.99c9.19-5.7,16.6-13.87,19-23.69c0.84-3.48,1.01-6.98,2.03-10.37
					c0.81-2.7,2.03-5.22,2.83-7.8c1.55-5.09,1.47-10.37-0.08-15.24c-0.43-1.35-0.99-2.71-1.95-3.79c-1.73-1.95-4.46-2.64-6.86-2.51
					c-2.37,0.12-4.53,0.89-6.82,1.55c-9.06,2.61-20.22,3.2-30.81,3.41C50.64,212.19,47.35,212.09,44.25,211.84z"/>
				<path class="st4" d="M20.57,248c2.38,3.59,3.44,7.97,6.12,11.34c3.13,3.94,8.42,6.03,13.4,5.31
					c7.69-1.12,13.09-7.99,19.93-11.68c4.11-2.21,8.92-3.38,12.19-6.71c12.87-13.12-6.86-23.26-18.53-18.42
					C42.27,232.56,20.74,230.75,20.57,248z"/>
			</g>
			<g>
				<path class="st4" d="M293.33,113.35c5.21,6.05,8.25,13.68,13.01,20.09c4.76,6.42,12.38,11.85,20.22,10.31
					c2.18-0.43,4.32-1.38,6.52-1.11c3.78,0.47,6.18,4.31,7.31,7.95c2.79,9.01,1.17,18.71,1.73,28.12
					c0.57,9.41,4.54,19.94,13.46,22.98c3.9,1.33,8.46,1.12,11.68,3.69c5.89,4.71,2.63,14.45-2.64,19.85
					c-7.48,7.67-17.69,12.07-25.89,18.98c-11.51,9.7-18.43,23.77-28.9,34.59c-11.93,12.33-28.51,20.06-45.62,21.27
					c-17.12,1.22-34.62-4.09-48.17-14.61c-8.66-6.72-15.63-15.36-22.15-24.19c-2.32-3.15-4.66-6.47-5.35-10.33
					c-0.61-3.4,0.14-6.88,0.96-10.23c2.49-10.14,5.72-20.09,9.66-29.76c2.23-5.49,4.72-10.99,5.34-16.88
					c0.64-6.14-0.8-12.27-2.01-18.32c-3.33-16.58-4.69-35.06,4.57-49.21C223.01,102.16,272.18,88.79,293.33,113.35z"/>
				<path class="st4" d="M225.93,148.46c10.64-18.76,45.74-28.8,62.19-12.32c4.03,4.04,6.59,9.2,10.29,13.59
					c3.73,4.4,9.33,8.19,15.01,7.41c1.59-0.22,3.15-0.8,4.74-0.52c2.94,0.53,4.89,3.47,5.95,6.27c2.14,5.71,2.05,11.95,2.08,18.16
					c0.01,1.36,0.03,2.7,0.07,4.01c0.25,7.78,1.94,15.36,6.87,18.05c2.18,1.19,4.66,1.47,6.54,3.46c3.44,3.63,1.35,10.1-2.32,13.96
					c-5.21,5.49-12.18,8.84-17.79,13.87c-3.71,3.33-6.73,7.31-9.63,11.41c-3.25,4.59-6.37,9.33-10.15,13.46
					c-8.17,8.9-19.5,14.61-31.35,16.08c-12.09,1.5-24.95-1.47-34.89-8.99c-6.49-4.88-11.46-11.51-15.83-18.21
					c-1.56-2.38-3.1-4.87-3.53-7.71c-0.38-2.51,0.16-5.07,0.74-7.55c0.71-3,1.5-5.98,2.35-8.94c1.27-4.43,2.68-8.8,4.24-13.1
					c1.47-4.07,3.09-8.16,3.44-12.5c0.37-4.52-0.66-9.05-1.55-13.51C220.96,172.6,219.88,159.13,225.93,148.46z"/>
				<path class="st4" d="M244.79,170.37c5.29-13.17,26.32-19.83,38.11-11.45c2.84,2.02,4.92,4.73,7.56,7.1
					c2.68,2.4,6.27,4.55,9.79,4.52c1-0.01,1.98-0.2,2.95,0.08c2.1,0.61,3.61,2.63,4.58,4.6c2,4.02,2.5,8.6,2.57,13.22
					c0.02,1.04,0.02,2.04,0,3c-0.08,6.16-0.73,10.73,0.28,13.13c0.43,1.02,1.16,1.54,1.4,3.22c1.53,2,0.07,5.74-1.99,8.06
					c-2.94,3.31-6.68,5.61-9.69,8.76c-1.99,2.08-3.62,4.5-5.19,6.97c-1.76,2.77-3.44,5.63-5.48,8.17c-4.4,5.48-10.5,9.2-17.08,10.88
					c-7.09,1.81-15.26,1.14-21.61-3.37c-4.3-3.06-7.27-7.67-9.52-12.24c-0.79-1.61-1.54-3.26-1.71-5.1
					c-0.15-1.62,0.17-3.26,0.52-4.86c0.42-1.94,0.88-3.87,1.35-5.79c0.7-2.88,1.41-5.72,2.16-8.53c0.71-2.66,1.45-5.33,1.55-8.12
					c0.1-2.91-0.53-5.82-1.09-8.7C242.75,186.01,241.92,177.53,244.79,170.37z"/>
				<path class="st4" d="M263.66,192.28c0.32,7.49,3.14,14.83,2.41,22.29c-0.24,2.44-0.85,4.86-0.76,7.31
					c0.09,2.45,1.06,5.06,3.2,6.27c2.72,1.53,6.33,0.15,8.33-2.25c2-2.4,2.8-5.55,3.61-8.56c0.81-3.02,1.78-6.15,4-8.35
					c4.91-4.87,10.35-4.97,10.09-13.17c-0.14-4.51-2.53-8.8-6.27-11.21C280.45,179.58,263.15,180.44,263.66,192.28z"/>
			</g>
			<g>
				<path class="st4" d="M166.07,319.59c-6.06,8.5-11.42,17.5-16.01,26.88c-1.8,3.67-3.51,7.55-3.54,11.64
					c-0.07,9.59,8.71,16.58,16.62,22.01c13.39,9.18,26.77,18.37,40.16,27.55c7.06,4.85,14.51,9.84,23.02,10.79
					c8.78,0.98,18.21-2.4,26.24,1.29c3.4,1.56,6.15,4.26,9.42,6.08c11.29,6.31,25.47,0.91,36.44-5.94
					c4.54-2.83,9.39-6.73,9.49-12.08c0.11-5.79-5.48-10.04-10.91-12.06c-5.43-2.02-11.5-2.98-15.83-6.83
					c-8.19-7.28-6.01-20.25-7.66-31.09c-2.13-13.98-11.7-25.94-23.25-34.11c-11.97-8.47-29.01-18.33-42.91-23.29
					C190.49,294.42,175.32,306.61,166.07,319.59z"/>
				<path class="st4" d="M182.37,338.44c-2.85,5-5.65,10.01-7.68,15.25c-0.8,2.05-1.58,4.2-1.37,6.42
					c0.53,5.61,6.2,9.32,11.18,12.31c8.39,5.05,16.72,10.33,24.92,15.81c4.33,2.89,8.81,5.96,13.79,6.98
					c4.97,1.01,10.25-0.22,14.95,1.95c2,0.92,3.68,2.37,5.64,3.34c6.75,3.36,15.03,0.42,21.48-3.61c2.97-1.86,5.92-4.35,6.35-7.62
					c0.48-3.6-2.08-6.52-4.75-8.34c-2.66-1.81-5.82-3.11-8.24-5.83c-4.53-5.1-4.28-12.99-6.18-19.49c-1.3-4.45-3.77-8.45-6.86-11.81
					c-2.79-3.02-6.25-5.7-10.03-7.88c-8.18-4.73-19.27-9.8-28.33-11.82C196.48,321.72,187.53,329.38,182.37,338.44z"/>
				<path class="st4" d="M198.68,357.29c-0.09,1.72,0.3,3.54,1.45,4.82c1.43,1.6,3.68,2.06,5.75,2.62
					c5.18,1.39,10.07,3.88,14.24,7.24c1.17,0.94,2.3,1.96,3.65,2.6c2.64,1.26,5.9,0.88,8.37-0.68c9.6-6.04,2.56-20.63-5.79-24.08
					C217.86,346.32,199.33,344.26,198.68,357.29z"/>
			</g>
			<path class="st4" d="M-12.15,372.08c10.49,13.24,30.53,12.73,47.16,9.74c16.63-2.99,35.28-6.86,49.24,2.65
				c10.76,7.33,15.65,20.82,25.48,29.36c10.33,8.98,24.74,11.41,36.57,18.29c19.14,11.14,32.94,34.34,55.08,34.9
				c6.31,0.16,12.58-1.68,18.88-1.19c10.03,0.79,18.57,7.28,27.93,11c20.86,8.28,44.78,2.26,64.89-7.73
				c20.1-9.98,38.26-23.79,59.06-32.24s46.07-10.74,64.56,1.97c29.96,20.59,27,67.12,50.54,94.83"/>
			<path class="st4" d="M276.37,509.76c21.4-14.53,43.54-27.97,66.3-40.26c13.16-7.1,26.8-13.92,41.57-16.25
				c14.77-2.33,31.03,0.42,42.06,10.52c8.64,7.91,13.13,19.25,17.34,30.18c2.16,5.61,4.33,11.22,6.49,16.83"/>
			<path class="st4" d="M317.79,510.83c9.32-6.76,18.64-13.52,27.96-20.28c7.15-5.18,14.39-10.42,22.58-13.7
				c8.19-3.29,17.57-4.47,25.85-1.39c13.57,5.05,20.63,19.65,26.37,32.95"/>
			<g>
				<path class="st4" d="M-14.87,400.74c13.11,5.93,28.31,2.78,42.43,0.01c14.12-2.78,29.81-4.8,42,2.84
					c4.25,2.67,7.74,6.34,11.38,9.79c7.51,7.13,15.77,13.42,24,19.7c5.16,3.93,10.38,7.9,16.29,10.57
					c3.63,1.64,7.48,2.77,11.08,4.45c15.25,7.13,24.83,23.52,40.45,29.79c15.04,6.03,33.39,1.66,47.13,10.26
					c9.56,5.98,14.7,17.03,17.65,27.92"/>
				<path class="st4" d="M-16.36,415.68c11.45,4.86,24.64,2.23,36.93-0.06c7.51-1.4,15.51-2.55,23.04-1.76
					c4.79,0.5,9.39,1.78,13.55,4.29c3.72,2.25,6.82,5.34,10.03,8.26c6.64,6.02,13.88,11.37,21.1,16.74
					c4.52,3.37,9.09,6.78,14.22,9.13c3.15,1.44,6.47,2.46,9.59,3.96c4.65,2.23,8.7,5.44,12.58,8.93c7.1,6.38,13.6,13.65,22.22,17.38
					c4.24,1.84,8.79,2.72,13.42,3.36c9.34,1.28,18.99,1.54,26.96,6.58c8.29,5.24,12.93,14.67,15.78,23.88"/>
				<path class="st4" d="M-17.85,430.61c9.78,3.79,20.97,1.68,31.44-0.12c6.4-1.1,13.19-1.98,19.6-1.31c4.07,0.42,8,1.48,11.57,3.53
					c3.19,1.83,5.89,4.34,8.67,6.72c5.76,4.91,12,9.31,18.19,13.77c3.89,2.8,7.8,5.66,12.14,7.68c2.67,1.24,5.47,2.16,8.1,3.47
					c3.92,1.95,7.35,4.7,10.62,7.69c5.98,5.48,11.4,11.72,18.52,15.13c3.51,1.68,7.27,2.59,11.1,3.3
					c7.74,1.42,15.78,1.98,22.53,6.31c7.02,4.51,11.17,12.3,13.91,19.85"/>
				<path class="st4" d="M-19.34,445.54c8.12,2.72,17.31,1.12,25.95-0.18c5.29-0.8,10.87-1.42,16.17-0.86
					c3.36,0.35,6.6,1.18,9.59,2.76c2.67,1.41,4.96,3.34,7.32,5.18c4.89,3.8,10.12,7.25,15.29,10.8c3.25,2.23,6.51,4.53,10.07,6.24
					c2.19,1.05,4.47,1.86,6.61,2.98c3.2,1.66,6,3.96,8.66,6.46c4.86,4.58,9.2,9.8,14.83,12.88c2.77,1.52,5.74,2.46,8.78,3.24
					c6.13,1.56,12.58,2.42,18.1,6.05c5.74,3.77,9.4,9.93,12.03,15.82"/>
				<path class="st4" d="M-20.83,460.47c6.46,1.65,13.64,0.57,20.46-0.25c4.18-0.5,8.55-0.85,12.73-0.41
					c2.64,0.28,5.21,0.88,7.61,1.99c2.14,1,4.04,2.35,5.97,3.64c4.01,2.68,8.24,5.19,12.38,7.83c2.62,1.67,5.22,3.41,8,4.79
					c1.71,0.85,3.47,1.56,5.12,2.48c2.47,1.38,4.65,3.21,6.7,5.23c3.75,3.67,7,7.87,11.14,10.63c2.04,1.36,4.21,2.34,6.45,3.18
					c4.53,1.7,9.37,2.87,13.67,5.78c4.47,3.04,7.63,7.56,10.16,11.79"/>
				<path class="st4" d="M-22.32,475.41c4.8,0.58,9.97,0.01,14.97-0.31c3.07-0.2,6.23-0.28,9.29,0.04c1.92,0.2,3.82,0.58,5.63,1.23
					c1.62,0.58,3.11,1.35,4.62,2.11c3.14,1.57,6.36,3.13,9.48,4.87c1.98,1.1,3.93,2.29,5.93,3.35c1.23,0.65,2.47,1.26,3.63,1.99
					c1.74,1.1,3.3,2.47,4.74,4c2.63,2.77,4.8,5.95,7.44,8.38c1.3,1.2,2.68,2.21,4.13,3.12c2.93,1.84,6.16,3.31,9.24,5.52
					c3.2,2.3,5.87,5.2,8.29,7.76"/>
				<path class="st4" d="M-23.81,490.34c5.07-0.79,10.24-0.43,15.34,0.11c8.19,0.88,17.09,2.68,22.26,9.09
					c2.25,2.79,3.57,6.22,5.56,9.2c2.7,4.05,6.68,7.23,11.22,8.98"/>
			</g>
			<g>
				<path class="st4" d="M331.72,18.79c-3.82,5.51-5.25,12.48-9.5,17.67c-5.29,6.47-13.98,9.02-20.4,14.37
					c-1.27,1.05-2.47,2.26-3.12,3.78c-1.58,3.73,0.74,8.07,3.87,10.64c7.53,6.18,19.32,6.08,25.53,13.58
					c2.68,3.24,3.89,7.46,6.34,10.88c8.33,11.64,26.23,9.49,38.89,16.17c6.77,3.57,12.02,9.91,14.28,17.22
					c3.59,11.64,0.57,26.52,9.96,34.28c2.61,2.16,5.88,3.38,9.16,4.24c10.72,2.8,22.33,2.03,32.58-2.17
					c6.53-2.68,12.43-6.66,18.33-10.52c11.45-7.5,23.54-14.82,37.08-16.87c18.04-2.72,37.57,4.12,54.19-3.42
					c15.43-7,23.61-26.8,17.63-42.65c-4.08-10.8-13.51-19.13-16.55-30.26c-2.97-10.91,0.77-22.55,6.04-32.56
					c5.27-10.01,12.11-19.24,16.04-29.85c0.68-1.83,1.26-3.89,0.5-5.69c-0.46-1.08-1.35-1.92-2.23-2.7
					c-20.37-18.18-47.47-27.95-74.71-29.72c-27.24-1.77-54.62,4.1-79.96,14.28c-9.1,3.66-17.67,8-24.14,15.52
					c-5.23,6.08-10.11,10.59-17.69,13.77C359.9,4.63,341.09,5.29,331.72,18.79z"/>
				<path class="st4" d="M424.24-16.57c-7.14,2.87-13.91,6.24-19.12,11.99c-4.18,4.64-8.12,8.1-14.07,10.57
					c-11.02,4.56-25.69,5.23-33.26,15.57c-3.1,4.23-4.4,9.56-7.8,13.57c-4.25,5-11.03,7.09-16.07,11.29c-1,0.83-1.95,1.77-2.47,2.95
					c-1.26,2.85,0.44,6.17,2.74,8.16c5.52,4.79,14.26,4.89,18.85,10.7c1.98,2.51,2.86,5.76,4.68,8.4
					c6.19,9.01,19.63,7.68,29.25,12.96c5.45,3.02,9.9,7.83,12.11,13.25c1.1,2.72,1.72,5.65,2.27,8.56
					c1.18,6.35,2.17,12.66,7.52,16.65c2.18,1.62,4.84,2.57,7.51,3.3c8.48,2.28,17.5,2.05,25.45-0.69c5.06-1.76,9.64-4.48,14.23-7.13
					c5.86-3.37,11.95-6.71,18.5-8.98c3.4-1.18,6.92-2.08,10.58-2.54c14.26-1.81,29.77,3.06,42.74-3.15
					c11.89-5.69,18.19-21.03,13.9-33.42c-2.93-8.44-9.99-14.99-11.89-23.64c-1.91-8.68,1.6-17.75,5.97-25.6
					c4.42-7.89,9.76-15.27,12.52-24.02c0.47-1.47,0.88-3.11,0.26-4.57c-0.37-0.87-1.06-1.55-1.75-2.2
					c-15.48-14.52-36.28-22.65-57.55-24.08c-0.51-0.04-1.03-0.07-1.54-0.09C466.11-29.94,444.36-24.66,424.24-16.57z"/>
				<path class="st4" d="M432.81-2.63c-5.18,2.08-10.16,4.47-14.1,8.46c-3.15,3.19-6.12,5.61-10.45,7.36
					c-8.1,3.26-18.63,3.95-24.4,11.12c-2.37,2.95-3.55,6.64-6.1,9.46c-3.21,3.53-8.07,5.15-11.74,8.22
					c-0.72,0.61-1.43,1.28-1.83,2.13c-0.93,1.97,0.14,4.27,1.6,5.68c3.51,3.4,9.2,3.7,12.16,7.82c1.28,1.78,1.83,4.05,3.02,5.93
					c4.04,6.38,13.03,5.88,19.61,9.75c4.13,2.47,7.78,5.76,9.94,9.29c1.08,1.77,1.83,3.64,2.51,5.49c1.48,4.03,2.84,8.01,7.09,10.65
					c1.74,1.08,3.81,1.77,5.87,2.35c6.24,1.78,12.66,2.1,18.32,0.79c3.6-0.83,6.84-2.3,10.12-3.73c4.19-1.81,8.56-3.63,13.32-4.85
					c2.48-0.63,5.06-1.11,7.75-1.35c10.48-0.9,21.96,2.01,31.29-2.89c8.35-4.38,12.78-15.27,10.17-24.19
					c-1.78-6.08-6.45-10.87-7.24-17.02c-0.83-6.47,2.41-12.95,5.89-18.63c3.55-5.79,7.41-11.29,9.01-18.2
					c0.26-1.11,0.5-2.34,0.03-3.45c-0.28-0.66-0.77-1.19-1.27-1.7c-11.04-11.33-26.37-17.81-42.34-18.58
					c-0.38-0.02-0.76-0.04-1.15-0.05C463.84-13.31,447.72-8.62,432.81-2.63z"/>
				<path class="st4" d="M441.38,11.32c-3.22,1.3-6.4,2.7-9.08,4.93c-2.1,1.75-4.13,3.12-6.84,4.15
					c-5.18,1.96-11.58,2.66-15.54,6.67c-1.65,1.67-2.69,3.72-4.4,5.36c-2.16,2.07-5.12,3.22-7.42,5.15c-0.45,0.38-0.9,0.8-1.18,1.3
					c-0.6,1.09-0.16,2.37,0.47,3.2c1.5,2.01,4.14,2.51,5.48,4.94c0.58,1.05,0.81,2.35,1.36,3.45c1.9,3.75,6.43,4.08,9.97,6.53
					c2.81,1.92,5.67,3.68,7.78,5.32c1.05,0.82,1.94,1.63,2.76,2.42c1.76,1.7,3.5,3.34,6.67,4.66c1.31,0.55,2.77,0.96,4.22,1.41
					c4,1.26,7.82,2.13,11.19,2.26c2.12,0.09,4.05-0.13,6.02-0.33c2.51-0.25,5.16-0.55,8.15-0.71c1.56-0.08,3.2-0.15,4.92-0.15
					c6.7,0.01,14.16,0.98,19.84-2.62c4.82-3.05,7.36-9.5,6.43-14.96c-0.63-3.72-2.83-6.8-2.58-10.4c0.3-4.33,3.24-8.15,5.82-11.67
					c2.7-3.68,5.12-7.27,5.5-12.38c0.06-0.74,0.12-1.56-0.21-2.32c-0.19-0.44-0.49-0.83-0.79-1.21
					c-6.63-8.1-16.46-12.95-27.13-13.08c-0.25,0-0.5-0.01-0.75,0C461.57,3.32,451.08,7.41,441.38,11.32z"/>
				<path class="st4" d="M429.67,33.65c-1.89,1.8-2.97,4.74-1.84,7.09c2.23,2.04,5.72,1.57,8.62,0.7c2.89-0.86,6.03-1.99,8.83-0.87
					c4.27,1.71,5.25,7.5,8.94,10.23c3.12,2.31,8.02,1.71,10.48-1.3c2.26-2.76,2.42-6.82,4.78-9.5c4.3-4.87,10.77-5.15,6.97-13.17
					c-2.29-4.83-6.55-8.14-11.91-7.58c-5.01,0.52-9.99,4.14-14.58,6C443.72,27.78,434.68,28.9,429.67,33.65z"/>
			</g>
			<path class="st4" d="M756.91,89.25c-10.42-4.73-21.16-8.74-32.12-12c-5.8-1.73-13.95-2.15-15.99,3.55
				c-0.74,2.09-0.32,4.41-0.78,6.58c-1.21,5.68-7.8,8.32-13.57,9.04c-1.39,0.17-2.85,0.31-4.02,1.08c-2.04,1.34-2.51,4.09-2.73,6.52
				c-0.82,8.98-0.9,18.51-5.66,26.17c-7.2,11.58-22.49,14.88-36.12,15.22c-14.68,0.37-29.42-1.45-43.58-5.39
				c-10.14-2.82-20.65-6.75-30.9-4.37c-5.48,1.28-10.39,4.28-15.72,6.05c-8.42,2.8-17.51,2.44-26.37,2.99
				c-26.64,1.64-52.68,12.03-73.14,29.18c-6.82,5.72-13.18,12.38-16.53,20.63c-3.98,9.79-3.32,20.97-0.28,31.09
				c3.04,10.12,8.32,19.4,13.55,28.58c3.7,6.48,8.83,13.83,16.3,13.66c2.94-0.07,5.93-1.37,8.74-0.48c4.21,1.33,5.48,6.56,8.31,9.95
				c4.58,5.49,13.28,5.65,19.77,2.64c6.49-3,11.48-8.42,16.88-13.12c28.7-25,69.44-30.16,107.51-30.47
				c9.52-0.08,19.21,0.1,28.29,2.99c5.55,1.76,10.75,4.5,16.33,6.16c9.61,2.85,19.85,2.35,29.86,2.78
				c22.13,0.94,44.04,6.59,63.87,16.45"/>
			<path class="st4" d="M753.68,103.88c-4.79-4.14-9.81-8.39-15.93-10.03c-6.11-1.64-13.65,0.17-16.6,5.78
				c-0.6,1.14-1.02,2.44-2,3.29c-1.46,1.27-3.61,1.13-5.54,1.25c-6.62,0.41-12.75,5.16-14.82,11.46c-2.6,7.91,0.79,17.36-3.56,24.47
				c-2.68,4.39-7.68,6.72-12.5,8.51c-17.08,6.34-35.58,8.81-53.73,7.2c-17.21-1.53-34.5-6.68-51.48-3.49
				c-6.22,1.17-12.17,3.43-18.34,4.83c-7.68,1.74-15.59,2.12-23.39,3.22c-14.5,2.04-28.64,6.59-41.62,13.37
				c-11.79,6.16-22.94,14.53-29.29,26.22c-6.35,11.68-6.94,27.15,1.17,37.69c1.31,1.71,2.92,3.32,4.99,3.93
				c2.78,0.82,5.8-0.33,8.66,0.18c6.81,1.22,9.52,10.88,16.33,12.08c3.12,0.55,6.21-0.9,9.03-2.33
				c20.59-10.46,40.75-22.74,63.36-27.45c10.95-2.28,22.2-2.71,33.38-3.13c19.6-0.74,39.54-1.45,58.5,3.58
				c6.4,1.7,12.64,4.04,19.12,5.41c13.66,2.89,27.84,1.37,41.73,2.7c12.84,1.24,25.43,4.95,36.88,10.88"/>
			<path class="st4" d="M505.97,191.03c-3.98,2.16-8.02,4.6-10.51,8.37c-2.49,3.78-2.96,9.26,0.1,12.6
				c1.64,1.79,4.13,2.85,5.17,5.04c0.82,1.74,0.53,3.82,1.19,5.63c1.05,2.88,4.34,4.44,7.4,4.41c3.06-0.03,5.96-1.3,8.74-2.58
				c16.82-7.71,33.61-16.37,51.93-19c15.81-2.27,32.04,0.08,47.8-2.5c5.78-0.95,12.4-3.49,13.73-9.19
				c3.59-15.47-20.05-26.78-32.38-26.06c-19.74,1.15-39.66,3.24-58.66,8.93C528.52,180.29,516.93,185.08,505.97,191.03z"/>
			<path class="st4" d="M758.41,120.5c-4.43,0.63-8.59-1.96-12.56-4.02c-3.97-2.06-9.01-3.61-12.72-1.12
				c-2.4,1.61-3.61,4.55-5.89,6.33c-1.84,1.44-4.28,2.04-5.93,3.7c-2.2,2.22-2.41,5.65-2.94,8.73c-1.29,7.41-5.33,14.31-11.16,19.06
				c-6.23,5.07-14.1,7.57-21.72,10.11c-7.62,2.54-15.44,5.37-21.26,10.92c-5.81,5.54-9.1,14.54-5.73,21.83
				c3.33,7.21,11.74,10.47,19.54,11.99c13.63,2.66,27.67,2.11,41.45,3.84c13.78,1.73,28.01,6.22,37.15,16.68"/>
			<path class="st4" d="M756.56,146.26c-1.72-2.86-5.36-4.31-8.65-3.72c-3.29,0.58-6.1,3.02-7.47,6.06
				c-0.83,1.84-1.18,3.87-1.97,5.73c-2.89,6.76-10.72,9.6-17.51,12.42c-5.58,2.31-10.98,5.07-16.13,8.24
				c-4.04,2.48-8.34,5.96-8.39,10.7c-0.04,3.4,2.29,6.5,5.24,8.2c2.94,1.71,6.41,2.24,9.8,2.48c8.25,0.58,16.61-0.38,24.76,1.06
				c8.07,1.43,15.7,5.26,21.67,10.88"/>
			<path class="st4" d="M753.75,167.32c-4.61,1.45-9.22,2.91-13.82,4.36c-1.62,0.51-3.28,1.04-4.6,2.1
				c-2.08,1.66-3.06,4.43-3.06,7.09c0,1.66,0.39,3.41,1.52,4.62c2.41,2.57,6.57,1.56,10.02,0.87c6.62-1.33,14.58-0.18,18.24,5.5"/>
			<path class="st4" d="M540.71,191.35c-1.22,0.55-2.49,1.18-3.23,2.3c-0.74,1.12-0.69,2.87,0.45,3.58
				c0.84,0.52,1.91,0.31,2.87,0.09c11.68-2.69,23.46-5.59,35.48-6.12c3.79-0.17,18.25,2.91,14.56-2.81
				c-2.79-4.32-13.88-5.45-18.36-5.34C561.79,183.3,550.38,186.98,540.71,191.35z"/>
			<g>
				<path class="st4" d="M383.32,267.51c-13.74,12.19-21.51,30.23-36.01,41.51c-7.62,5.92-17.61,10.78-19.84,20.16
					c-1.21,5.09,0.26,10.42,2.16,15.29c1.41,3.61,3.09,7.14,5.43,10.23c10.6,13.99,32.29,16.05,42.3,30.47
					c3.49,5.02,5.3,11.27,9.76,15.45c4.38,4.11,10.65,5.55,16.64,5.81c6,0.26,12.02-0.49,18-0.01c14.93,1.2,29.59,9.94,44.06,6.06
					c8.8-2.36,15.75-9.07,21.37-16.24c5.04-6.44,9.47-13.76,10.36-21.89c1.71-15.49-9.55-29.84-9.53-45.43
					c0.01-4.58,1-9.11,1.11-13.69c0.11-4.58-0.83-9.48-4.03-12.75c-2.91-2.98-7.43-4.37-9.45-8.01c-0.57-1.02-0.91-2.18-1.57-3.14
					c-3.08-4.48-9.95-2.19-15.38-2.54c-18.7-1.21-17.33-26.26-30.28-34.36C415.56,246.39,392.87,259.04,383.32,267.51z"/>
				<path class="st4" d="M391.9,288.87c-3.32,3.07-6.07,6.61-8.7,10.29c-4.73,6.62-9.19,13.58-15.57,18.65
					c-5.2,4.14-12.01,7.55-13.67,13.98c-0.89,3.48,0,7.13,1.18,10.47c0.88,2.47,1.93,4.9,3.43,7.03
					c6.77,9.67,21.37,11.17,27.73,21.45c1.68,2.72,3.21,5.73,5.17,8.08c1.02,1.23,2.13,2.32,3.45,3.21c1.24,0.84,2.61,1.45,4.06,1.9
					c2.95,0.91,6.26,1.15,9.52,1.28c4.3,0.18,8.61-0.25,12.88,0.16c7.46,0.72,14.82,3.97,22.14,4.95c3.15,0.42,6.29,0.42,9.42-0.37
					c6.32-1.59,11.42-6.19,15.56-11.2c3.77-4.52,6.97-9.65,7.68-15.33c1.41-10.93-6.54-21.14-7.08-32.06
					c-0.16-3.18,0.36-6.33,0.26-9.49c-0.1-3.17-0.9-6.54-3.2-8.81c-2.11-2.08-5.3-3.09-6.81-5.58c-0.43-0.7-0.69-1.49-1.18-2.15
					c-2.3-3.09-7.16-1.66-11.07-1.98c-13.23-1.1-13.17-18.04-22.64-23.57c-8.01-4.64-20.65,0.64-28.68,6.06
					C394.31,286.85,392.98,287.88,391.9,288.87z"/>
				<path class="st4" d="M400.48,310.23c-1.74,1.77-3.08,3.77-4.38,5.84c-2.34,3.75-4.72,7.62-8.15,10.53
					c-2.78,2.35-6.42,4.32-7.49,7.8c-0.58,1.88-0.26,3.84,0.21,5.65c0.34,1.34,0.78,2.65,1.44,3.83
					c2.97,5.34,10.22,6.49,13.16,12.43c1.08,2.17,2.58,4.35,4.42,5.62c0.96,0.66,1.96,1.15,3.06,1.49c1.03,0.32,2.12,0.48,3.24,0.55
					c2.29,0.14,4.79-0.09,7.29,0c2.61,0.09,5.19-0.01,7.76,0.33c4.48,0.6,8.9,2.58,13.35,3.22c1.9,0.27,3.81,0.3,5.71-0.11
					c3.85-0.83,7.07-3.33,9.76-6.15c2.49-2.61,4.45-5.54,5-8.77c1.09-6.37-3.52-12.43-4.64-18.7c-0.32-1.78-0.29-3.54-0.59-5.3
					c-0.3-1.76-0.96-3.6-2.38-4.87c-1.31-1.18-3.17-1.8-4.17-3.14c-0.28-0.38-0.48-0.8-0.79-1.15c-1.52-1.69-4.37-1.12-6.76-1.42
					c-7.75-0.98-9-9.86-15-12.78c-5.19-2.53-12.68,0.15-17.69,3.27C401.95,308.97,401.12,309.59,400.48,310.23z"/>
				<path class="st4" d="M409.93,330.96c-0.34,0.14-0.69,0.32-0.86,0.64c-0.23,0.42-0.09,0.92-0.05,1.4
					c0.25,3.47-5.16,5.41-4.78,8.87c0.19,1.74,1.94,2.98,3.68,3.17c1.74,0.2,3.46-0.4,5.09-1.03c1.63-0.63,3.31-1.31,5.05-1.27
					c2.5,0.05,4.74,1.53,7.2,1.99c2.02,0.38,4.16,0.03,5.96-0.97c6.42-3.56-0.66-9-4.79-10.43
					C421.67,331.67,414.77,328.96,409.93,330.96z"/>
			</g>
			<g>
				<path class="st4" d="M498.54,514.01c-10.6-17.15-19.27-35.48-25.79-54.55c-1.81-5.3-3.45-11.17-1.39-16.38
					c3.32-8.38,14.01-10.6,20.78-16.55c7.47-6.56,9.93-17.6,17.68-23.84c6-4.83,14.24-5.94,21.92-5.35
					c7.68,0.6,15.18,2.7,22.84,3.55c12.18,1.34,24.49-0.52,36.73,0.12c12.23,0.64,25.26,4.42,32.6,14.23
					c3.66,4.89,5.57,10.85,8.7,16.1c7.11,11.94,20.33,19.51,34.06,21.65c13.73,2.14,27.89-0.7,40.73-6.01
					c8.89-3.67,17.37-8.54,26.73-10.76c9.36-2.22,20.21-1.27,27.1,5.44c2.19,2.14,7.03,4.35,9.08,6.62
					c9.5,10.56,15.15,24.15,18.06,38.06c2.91,13.9,3.23,28.21,3.13,42.42"/>
				<path class="st4" d="M524.78,512.67c-8.35-13.21-15.17-27.43-20.22-42.24c-1.4-4.12-2.66-8.66-1.14-12.72
					c2.46-6.52,10.52-8.39,15.6-13.12c5.72-5.32,7.74-14.05,13.87-19.04c4.74-3.87,11.22-4.89,17.3-4.55
					c2.44,0.14,4.85,0.47,7.27,0.87c3.62,0.6,7.22,1.33,10.86,1.75c9.66,1.1,19.42-0.07,29.13,0.48
					c9.62,0.54,19.84,3.34,25.78,10.61c2.96,3.63,4.62,8.04,7.19,11.93c4.06,6.15,10.33,10.7,17.41,13.42
					c3.1,1.19,6.36,2.04,9.65,2.51c10.82,1.56,21.97-0.52,32.06-4.32c7-2.62,13.63-6.17,20.87-7.43c7.34-1.27,15.57,0.12,20.71,5.79
					c1.66,1.83,5.26,3.76,6.83,5.68c7.06,8.64,11.55,19.38,13.97,30.39c2.43,11.02,3,22.29,3.35,33.42"/>
				<path class="st4" d="M551.02,511.33c-6.11-9.27-11.07-19.38-14.65-29.94c-0.99-2.93-1.88-6.16-0.88-9.06
					c1.6-4.66,7.01-6.19,10.42-9.7c3.96-4.08,5.56-10.49,10.05-14.24c3.48-2.91,8.19-3.84,12.68-3.74c1.8,0.04,3.59,0.23,5.38,0.48
					c2.68,0.38,5.35,0.89,8.05,1.22c7.15,0.86,14.34,0.38,21.53,0.84c7.01,0.44,14.42,2.25,18.97,6.99
					c2.27,2.36,3.67,5.24,5.67,7.76c3.17,3.98,7.81,6.9,13,8.63c2.27,0.76,4.66,1.29,7.07,1.59c7.9,0.99,16.06-0.34,23.39-2.63
					c5.11-1.57,9.91-3.78,15.02-4.09c5.35-0.33,10.92,1.51,14.32,6.14c1.13,1.53,3.48,3.16,4.58,4.73
					c4.64,6.68,7.94,14.6,9.88,22.73c1.94,8.13,2.78,16.38,3.58,24.43"/>
				<path class="st4" d="M577.26,509.99c-3.87-5.33-6.97-11.33-9.07-17.63c-0.58-1.75-1.09-3.65-0.63-5.39
					c0.74-2.8,3.5-4.01,5.24-6.27c2.2-2.87,3.37-6.94,6.24-9.45c2.22-1.95,5.17-2.79,8.06-2.94c1.16-0.06,2.32-0.02,3.49,0.09
					c1.75,0.16,3.49,0.45,5.23,0.69c4.63,0.62,9.26,0.83,13.93,1.21c4.4,0.35,8.99,1.16,12.16,3.37c1.58,1.1,2.72,2.43,4.16,3.58
					c2.28,1.82,5.3,3.1,8.59,3.84c1.45,0.32,2.96,0.54,4.49,0.67c4.99,0.41,10.14-0.18,14.73-0.94c3.21-0.53,6.23-1.33,9.16-0.75
					c3.41,0.67,6.25,2.94,7.93,6.48c0.59,1.24,1.72,2.55,2.33,3.79c2.28,4.65,4.34,9.83,5.8,15.06c1.46,5.24,2.56,10.46,3.8,15.44"
					/>
				<path class="st4" d="M603.5,508.65c-2.81-2.41-4.47-6.25-3.83-9.9s3.78-6.83,7.47-7.1c2.98-0.22,5.8,1.32,8.76,1.73
					c4.09,0.56,8.12-1.05,12.17-1.8c4.06-0.76,8.94-0.32,11.27,3.08c1.88,2.74,1.42,6.36,1.62,9.67c0.3,5.08,2.35,10.04,5.74,13.84"
					/>
			</g>
		</g>
	</g>
</g>
</svg>
